<svg viewBox="0 0 841 72" fill="none" xmlns="http://www.w3.org/2000/svg">
  <line y1="35.5" x2="841" y2="35.5" stroke="#D0B080" stroke-width="11" />
  <path
    d="M75.016 10.744L75.088 12.328C75.28 13.768 75.496 15.304 75.736 16.936C75.976 18.568 76.216 20.08 76.456 21.472H75.304L74.08 17.8C73.552 16.168 72.616 14.872 71.272 13.912C69.976 12.904 68.512 12.4 66.88 12.4H54.28V33.784H62.632C64.264 33.784 65.656 33.304 66.808 32.344C68.008 31.336 68.776 30.016 69.112 28.384L69.832 24.712H70.984V44.368H69.832L69.112 40.696C68.776 39.064 68.008 37.768 66.808 36.808C65.656 35.8 64.264 35.296 62.632 35.296H54.28V55.672C54.28 56.248 54.328 56.8 54.424 57.328C54.52 57.808 54.736 58.216 55.072 58.552C55.456 58.888 56.008 59.152 56.728 59.344C57.448 59.536 58.408 59.632 59.608 59.632H66.88C69.04 59.632 71.008 59.008 72.784 57.76C74.608 56.464 75.952 54.736 76.816 52.576L77.248 51.208H78.4C78.16 52.6 77.896 54.112 77.608 55.744C77.368 57.376 77.128 58.888 76.888 60.28L76.744 60.928H40.6V59.56H42.976C44.368 59.56 45.496 59.128 46.36 58.264C47.224 57.4 47.656 56.272 47.656 54.88V16.792C47.656 15.4 47.224 14.272 46.36 13.408C45.496 12.544 44.368 12.112 42.976 12.112H40.6V10.744H75.016ZM87.8303 12.112V10.96H108.206C113.006 10.96 117.206 11.56 120.806 12.76C124.454 13.96 127.478 15.664 129.878 17.872C132.326 20.032 134.15 22.672 135.35 25.792C136.598 28.864 137.222 32.272 137.222 36.016C137.222 40.144 136.454 43.768 134.918 46.888C133.43 50.008 131.294 52.624 128.51 54.736C125.726 56.848 122.39 58.432 118.502 59.488C114.614 60.544 110.294 61.072 105.542 61.072H87.8303V59.704H90.2063C91.2143 59.704 92.0303 59.392 92.6543 58.768C93.2783 58.144 93.5903 57.328 93.5903 56.32V15.496C93.5903 14.488 93.2783 13.672 92.6543 13.048C92.0303 12.424 91.2143 12.112 90.2063 12.112H87.8303ZM103.526 59.776H103.454C107.39 59.776 110.966 59.272 114.182 58.264C117.446 57.256 120.23 55.768 122.534 53.8C124.838 51.832 126.614 49.36 127.862 46.384C129.11 43.408 129.734 39.976 129.734 36.088C129.734 32.536 129.158 29.296 128.006 26.368C126.902 23.44 125.222 20.944 122.966 18.88C120.71 16.768 117.902 15.16 114.542 14.056C111.182 12.904 107.27 12.328 102.806 12.328H100.142V55.816C100.142 57.016 100.31 57.976 100.646 58.696C101.03 59.416 101.99 59.776 103.526 59.776ZM179.57 17.8L179.714 17.656C179.09 16.024 178.178 14.728 176.978 13.768C175.778 12.76 174.506 12.256 173.162 12.256H172.37V10.6H193.106V12.256H190.37C188.786 12.256 187.658 12.736 186.986 13.696C186.362 14.608 186.314 15.832 186.842 17.368L199.226 51.568L208.73 17.296C209.066 15.76 208.874 14.536 208.154 13.624C207.434 12.712 206.306 12.256 204.77 12.256H200.882V10.6H219.098V12.256H218.09C216.458 12.256 214.994 12.76 213.698 13.768C212.45 14.728 211.586 16.024 211.106 17.656L198.146 61.432H196.49C194.474 56.2 192.458 50.992 190.442 45.808C188.426 40.624 186.41 35.416 184.394 30.184L172.01 61.432H170.354L153.506 17.8C152.882 16.168 151.994 14.872 150.842 13.912C149.69 12.904 148.49 12.4 147.242 12.4H146.522V10.744H165.602V12.4H164.234C162.602 12.4 161.474 12.904 160.85 13.912C160.226 14.872 160.226 16.168 160.85 17.8H160.778L173.594 52.936L183.314 27.592L179.57 17.8ZM246.558 59.56V60.928H228.486V59.56H230.862C231.87 59.56 232.686 59.248 233.31 58.624C233.934 58 234.246 57.184 234.246 56.176V15.352C234.246 14.344 233.934 13.528 233.31 12.904C232.686 12.28 231.87 11.968 230.862 11.968H228.486V10.6H246.558V11.968H244.182C243.174 11.968 242.358 12.28 241.734 12.904C241.11 13.528 240.798 14.344 240.798 15.352V56.176C240.798 57.184 241.11 58 241.734 58.624C242.358 59.248 243.174 59.56 244.182 59.56H246.558ZM259.848 59.56L262.152 59.704C263.16 59.704 263.976 59.392 264.6 58.768C265.224 58.144 265.536 57.328 265.536 56.32L265.608 17.656L264.024 15.496C263.304 14.488 262.416 13.672 261.36 13.048C260.304 12.424 259.272 12.112 258.264 12.112H255.888V10.744H268.848C273.6 17.224 278.304 23.68 282.96 30.112C287.664 36.544 292.416 43 297.216 49.48L297.144 15.424C297.144 14.416 296.832 13.6 296.208 12.976C295.584 12.352 294.768 12.04 293.76 12.04H291.384V10.672H304.776V12.04H302.4C301.44 12.04 300.648 12.304 300.024 12.832C299.4 13.36 299.04 14.056 298.944 14.92L298.512 60.784H297.144C292.104 53.92 287.112 47.128 282.168 40.408C277.224 33.64 272.256 26.824 267.264 19.96L267.48 56.176C267.48 57.184 267.792 58 268.416 58.624C269.04 59.248 269.856 59.56 270.864 59.56H273.24V60.928H259.848V59.56ZM386.168 60.928L384.872 60.856C384.824 60.616 384.752 60.376 384.656 60.136C384.608 59.896 384.56 59.656 384.512 59.416C384.272 58.36 383.72 57.736 382.856 57.544C381.992 57.304 380.936 57.544 379.688 58.264C378.008 59.272 376.088 60.064 373.928 60.64C371.768 61.168 369.248 61.432 366.368 61.432C362.816 61.432 359.576 60.832 356.648 59.632C353.768 58.384 351.296 56.632 349.232 54.376C347.168 52.12 345.56 49.408 344.408 46.24C343.304 43.072 342.752 39.544 342.752 35.656C342.752 31.768 343.328 28.24 344.48 25.072C345.68 21.904 347.336 19.192 349.448 16.936C351.608 14.68 354.176 12.952 357.152 11.752C360.128 10.504 363.44 9.88 367.088 9.88C370.016 9.88 372.512 10.144 374.576 10.672C376.64 11.2 378.44 11.944 379.976 12.904C381.176 13.624 382.208 13.888 383.072 13.696C383.936 13.504 384.488 12.928 384.728 11.968C384.776 11.728 384.824 11.512 384.872 11.32C384.968 11.128 385.04 10.912 385.088 10.672H386.24V25.432H384.8C384.704 25.192 384.584 24.904 384.44 24.568C384.296 24.184 384.176 23.872 384.08 23.632C383.312 21.328 382.208 19.24 380.768 17.368C379.328 15.448 377.816 14.104 376.232 13.336C375.08 12.76 373.808 12.328 372.416 12.04C371.072 11.704 369.56 11.536 367.88 11.536C365.24 11.536 362.84 12.112 360.68 13.264C358.52 14.416 356.648 16.048 355.064 18.16C353.528 20.272 352.328 22.816 351.464 25.792C350.648 28.768 350.24 32.056 350.24 35.656C350.24 39.304 350.648 42.616 351.464 45.592C352.28 48.568 353.408 51.112 354.848 53.224C356.336 55.336 358.112 56.992 360.176 58.192C362.288 59.344 364.616 59.92 367.16 59.92C369.032 59.92 370.76 59.728 372.344 59.344C373.928 58.912 375.416 58.312 376.808 57.544C378.344 56.584 379.76 55.24 381.056 53.512C382.352 51.784 383.336 49.864 384.008 47.752C384.104 47.512 384.224 47.224 384.368 46.888C384.512 46.504 384.632 46.192 384.728 45.952H386.168V60.928ZM395.611 35.8C395.611 31.912 396.187 28.384 397.339 25.216C398.539 22.048 400.219 19.336 402.379 17.08C404.539 14.824 407.131 13.096 410.155 11.896C413.179 10.648 416.539 10.024 420.235 10.024C424.027 10.024 427.483 10.648 430.603 11.896C433.723 13.096 436.387 14.824 438.595 17.08C440.803 19.336 442.507 22.048 443.707 25.216C444.907 28.384 445.507 31.912 445.507 35.8C445.507 39.688 444.883 43.216 443.635 46.384C442.387 49.552 440.635 52.264 438.379 54.52C436.123 56.776 433.387 58.528 430.171 59.776C427.003 60.976 423.475 61.576 419.587 61.576C415.987 61.576 412.699 60.976 409.723 59.776C406.795 58.528 404.275 56.776 402.163 54.52C400.099 52.264 398.491 49.552 397.339 46.384C396.187 43.216 395.611 39.688 395.611 35.8ZM402.883 35.8C402.883 39.4 403.291 42.688 404.107 45.664C404.923 48.64 406.075 51.184 407.563 53.296C409.051 55.408 410.827 57.04 412.891 58.192C415.003 59.344 417.331 59.92 419.875 59.92C422.611 59.92 425.107 59.344 427.363 58.192C429.619 57.04 431.539 55.408 433.123 53.296C434.707 51.184 435.931 48.64 436.795 45.664C437.707 42.688 438.163 39.4 438.163 35.8C438.163 32.2 437.731 28.912 436.867 25.936C436.003 22.96 434.755 20.416 433.123 18.304C431.539 16.192 429.619 14.56 427.363 13.408C425.155 12.256 422.683 11.68 419.947 11.68C417.403 11.68 415.075 12.256 412.963 13.408C410.851 14.56 409.051 16.192 407.563 18.304C406.075 20.416 404.923 22.96 404.107 25.936C403.291 28.912 402.883 32.2 402.883 35.8ZM454.936 12.112L454.72 10.744H474.088C476.728 10.744 479.104 11.08 481.216 11.752C483.376 12.424 485.224 13.384 486.76 14.632C488.296 15.88 489.472 17.392 490.288 19.168C491.152 20.896 491.584 22.816 491.584 24.928C491.584 28.192 490.6 30.784 488.632 32.704C486.712 34.576 484.072 35.848 480.712 36.52C481.768 37.96 483.448 40.336 485.752 43.648C488.104 46.912 490.936 50.872 494.248 55.528C494.92 56.488 495.496 57.256 495.976 57.832C496.456 58.36 496.984 58.768 497.56 59.056C498.136 59.296 498.856 59.44 499.72 59.488C500.632 59.536 501.832 59.56 503.32 59.56V60.928C500.2 60.928 497.728 60.904 495.904 60.856C494.128 60.76 492.688 60.544 491.584 60.208C490.48 59.824 489.568 59.272 488.848 58.552C488.176 57.832 487.384 56.824 486.472 55.528C483.256 51.016 480.544 47.152 478.336 43.936C476.128 40.672 474.688 38.44 474.016 37.24H467.248V56.32C467.248 57.328 467.56 58.144 468.184 58.768C468.808 59.392 469.624 59.704 470.632 59.704H473.008V61.072H454.936V59.704H457.312C458.32 59.704 459.136 59.392 459.76 58.768C460.384 58.144 460.696 57.328 460.696 56.32V15.496C460.696 14.488 460.384 13.672 459.76 13.048C459.136 12.424 458.32 12.112 457.312 12.112H454.936ZM467.104 35.512H474.088C477.112 35.512 479.536 34.576 481.36 32.704C483.232 30.784 484.168 27.76 484.168 23.632C484.168 20.176 483.064 17.392 480.856 15.28C478.648 13.168 475.744 12.112 472.144 12.112H467.104V35.512ZM512.782 35.8C512.782 31.912 513.358 28.384 514.51 25.216C515.71 22.048 517.39 19.336 519.55 17.08C521.71 14.824 524.302 13.096 527.326 11.896C530.35 10.648 533.71 10.024 537.406 10.024C541.198 10.024 544.654 10.648 547.774 11.896C550.894 13.096 553.558 14.824 555.766 17.08C557.974 19.336 559.678 22.048 560.878 25.216C562.078 28.384 562.678 31.912 562.678 35.8C562.678 39.688 562.054 43.216 560.806 46.384C559.558 49.552 557.806 52.264 555.55 54.52C553.294 56.776 550.558 58.528 547.342 59.776C544.174 60.976 540.646 61.576 536.758 61.576C533.158 61.576 529.87 60.976 526.894 59.776C523.966 58.528 521.446 56.776 519.334 54.52C517.27 52.264 515.662 49.552 514.51 46.384C513.358 43.216 512.782 39.688 512.782 35.8ZM520.054 35.8C520.054 39.4 520.462 42.688 521.278 45.664C522.094 48.64 523.246 51.184 524.734 53.296C526.222 55.408 527.998 57.04 530.062 58.192C532.174 59.344 534.502 59.92 537.046 59.92C539.782 59.92 542.278 59.344 544.534 58.192C546.79 57.04 548.71 55.408 550.294 53.296C551.878 51.184 553.102 48.64 553.966 45.664C554.878 42.688 555.334 39.4 555.334 35.8C555.334 32.2 554.902 28.912 554.038 25.936C553.174 22.96 551.926 20.416 550.294 18.304C548.71 16.192 546.79 14.56 544.534 13.408C542.326 12.256 539.854 11.68 537.118 11.68C534.574 11.68 532.246 12.256 530.134 13.408C528.022 14.56 526.222 16.192 524.734 18.304C523.246 20.416 522.094 22.96 521.278 25.936C520.462 28.912 520.054 32.2 520.054 35.8ZM575.996 59.56L578.3 59.704C579.308 59.704 580.124 59.392 580.748 58.768C581.372 58.144 581.684 57.328 581.684 56.32L581.756 17.656L580.172 15.496C579.452 14.488 578.564 13.672 577.508 13.048C576.452 12.424 575.42 12.112 574.412 12.112H572.036V10.744H584.996C589.748 17.224 594.452 23.68 599.108 30.112C603.812 36.544 608.564 43 613.364 49.48L613.292 15.424C613.292 14.416 612.98 13.6 612.356 12.976C611.732 12.352 610.916 12.04 609.908 12.04H607.532V10.672H620.924V12.04H618.548C617.588 12.04 616.796 12.304 616.172 12.832C615.548 13.36 615.188 14.056 615.092 14.92L614.66 60.784H613.292C608.252 53.92 603.26 47.128 598.316 40.408C593.372 33.64 588.404 26.824 583.412 19.96L583.628 56.176C583.628 57.184 583.94 58 584.564 58.624C585.188 59.248 586.004 59.56 587.012 59.56H589.388V60.928H575.996V59.56ZM649.744 60.928L630.304 60.784V59.128H632.68C634.696 59.128 636.52 58.528 638.152 57.328C639.784 56.08 640.936 54.448 641.608 52.432C643.768 45.856 645.904 39.352 648.016 32.92C650.128 26.44 652.264 19.912 654.424 13.336C654.376 13.24 654.328 13.12 654.28 12.976C654.28 12.832 654.256 12.712 654.208 12.616C655.84 12.376 657.112 11.968 658.024 11.392C658.936 10.768 659.32 10.072 659.176 9.304H659.824L673.648 52.936C674.32 54.856 675.328 56.392 676.672 57.544C678.064 58.696 679.576 59.272 681.208 59.272H682.144V60.928H660.256V59.272H662.056C664.024 59.272 665.416 58.696 666.232 57.544C667.096 56.392 667.264 54.856 666.736 52.936L663.424 42.28H646.648L643.192 53.296C642.76 55.12 642.976 56.584 643.84 57.688C644.704 58.744 646.072 59.272 647.944 59.272H649.744V60.928ZM647.224 40.408H662.992L655.144 15.496L647.224 40.408ZM691.598 12.112V10.96H711.974C716.774 10.96 720.974 11.56 724.574 12.76C728.222 13.96 731.246 15.664 733.646 17.872C736.094 20.032 737.918 22.672 739.118 25.792C740.366 28.864 740.99 32.272 740.99 36.016C740.99 40.144 740.222 43.768 738.686 46.888C737.198 50.008 735.062 52.624 732.278 54.736C729.494 56.848 726.158 58.432 722.27 59.488C718.382 60.544 714.062 61.072 709.31 61.072H691.598V59.704H693.974C694.982 59.704 695.798 59.392 696.422 58.768C697.046 58.144 697.358 57.328 697.358 56.32V15.496C697.358 14.488 697.046 13.672 696.422 13.048C695.798 12.424 694.982 12.112 693.974 12.112H691.598ZM707.294 59.776H707.222C711.158 59.776 714.734 59.272 717.95 58.264C721.214 57.256 723.998 55.768 726.302 53.8C728.606 51.832 730.382 49.36 731.63 46.384C732.878 43.408 733.502 39.976 733.502 36.088C733.502 32.536 732.926 29.296 731.774 26.368C730.67 23.44 728.99 20.944 726.734 18.88C724.478 16.768 721.67 15.16 718.31 14.056C714.95 12.904 711.038 12.328 706.574 12.328H703.91V55.816C703.91 57.016 704.078 57.976 704.414 58.696C704.798 59.416 705.758 59.776 707.294 59.776ZM750.289 35.8C750.289 31.912 750.865 28.384 752.017 25.216C753.217 22.048 754.897 19.336 757.057 17.08C759.217 14.824 761.809 13.096 764.833 11.896C767.857 10.648 771.217 10.024 774.913 10.024C778.705 10.024 782.161 10.648 785.281 11.896C788.401 13.096 791.065 14.824 793.273 17.08C795.481 19.336 797.185 22.048 798.385 25.216C799.585 28.384 800.185 31.912 800.185 35.8C800.185 39.688 799.561 43.216 798.313 46.384C797.065 49.552 795.313 52.264 793.057 54.52C790.801 56.776 788.065 58.528 784.849 59.776C781.681 60.976 778.153 61.576 774.265 61.576C770.665 61.576 767.377 60.976 764.401 59.776C761.473 58.528 758.953 56.776 756.841 54.52C754.777 52.264 753.169 49.552 752.017 46.384C750.865 43.216 750.289 39.688 750.289 35.8ZM757.561 35.8C757.561 39.4 757.969 42.688 758.785 45.664C759.601 48.64 760.753 51.184 762.241 53.296C763.729 55.408 765.505 57.04 767.569 58.192C769.681 59.344 772.009 59.92 774.553 59.92C777.289 59.92 779.785 59.344 782.041 58.192C784.297 57.04 786.217 55.408 787.801 53.296C789.385 51.184 790.609 48.64 791.473 45.664C792.385 42.688 792.841 39.4 792.841 35.8C792.841 32.2 792.409 28.912 791.545 25.936C790.681 22.96 789.433 20.416 787.801 18.304C786.217 16.192 784.297 14.56 782.041 13.408C779.833 12.256 777.361 11.68 774.625 11.68C772.081 11.68 769.753 12.256 767.641 13.408C765.529 14.56 763.729 16.192 762.241 18.304C760.753 20.416 759.601 22.96 758.785 25.936C757.969 28.912 757.561 32.2 757.561 35.8Z"
    fill="white"
  />
  <line
    x1="328"
    y1="35.5"
    x2="841"
    y2="35.5"
    stroke="#D0B080"
    stroke-width="11"
  />
</svg>