<?xml version="1.0" standalone="no"?>
<!DOCTYPE svg PUBLIC "-//W3C//DTD SVG 20010904//EN"
 "http://www.w3.org/TR/2001/REC-SVG-20010904/DTD/svg10.dtd">
<svg version="1.0" xmlns="http://www.w3.org/2000/svg"
 width="700.000000pt" height="700.000000pt" viewBox="0 0 700.000000 700.000000"
 preserveAspectRatio="xMidYMid meet">
<metadata>
Created by potrace 1.11, written by Peter Selinger 2001-2013
</metadata>
<g transform="translate(0.000000,700.000000) scale(0.100000,-0.100000)"
fill="#000000" stroke="none">
<path d="M0 3500 l0 -3500 3500 0 3500 0 0 3500 0 3500 -3500 0 -3500 0 0
-3500z m5175 1606 c506 -91 878 -398 1030 -850 24 -70 65 -250 65 -282 0 -12
-57 -14 -343 -14 l-343 0 -13 63 c-7 34 -30 99 -52 144 -116 243 -369 376
-679 360 -132 -7 -201 -25 -315 -81 -245 -121 -398 -367 -451 -728 -22 -154
-15 -449 16 -591 66 -309 212 -522 434 -631 119 -59 180 -71 361 -71 181 0
249 15 380 83 142 75 271 242 306 397 l12 55 345 0 344 0 -7 -46 c-19 -132
-83 -310 -152 -430 -194 -331 -503 -548 -906 -636 -89 -20 -131 -22 -337 -22
-260 0 -335 10 -523 75 -640 219 -1001 830 -974 1649 16 486 158 863 433 1150
113 117 232 204 379 276 165 80 302 120 492 144 101 13 394 4 498 -14z m-2205
-296 l0 -280 -745 0 -745 0 0 -385 0 -385 688 -2 687 -3 3 -282 2 -283 -690 0
-690 0 0 -385 0 -385 750 0 750 0 0 -280 0 -280 -1095 0 -1095 0 0 1615 0
1615 1090 0 1090 0 0 -280z"/>
</g>
</svg>
